<?xml version="1.0" encoding="utf-8"?>
<!-- Generator: Adobe Illustrator 22.1.0, SVG Export Plug-In . SVG Version: 6.00 Build 0)  -->
<svg version="1.1" id="Layer_1" xmlns="http://www.w3.org/2000/svg" xmlns:xlink="http://www.w3.org/1999/xlink" x="0px" y="0px"
	 viewBox="0 0 860 540" style="enable-background:new 0 0 860 540;" xml:space="preserve">
<style type="text/css">
	.st0{fill:url(#SVGID_1_);}
	.st1{fill:url(#SVGID_2_);}
	.st2{fill:url(#SVGID_3_);}
	.st3{fill:url(#SVGID_4_);}
	.st4{fill:#565656;}
	.st5{fill:url(#SVGID_5_);}
	.st6{fill:url(#SVGID_6_);}
</style>
<linearGradient id="SVGID_1_" gradientUnits="userSpaceOnUse" x1="152.8295" y1="-162.9422" x2="243.2224" y2="174.4086" gradientTransform="matrix(1 0 0 -1 0 264)">
	<stop  offset="0" style="stop-color:#1615DA"/>
	<stop  offset="0.1177" style="stop-color:#1619DB"/>
	<stop  offset="0.2296" style="stop-color:#1424DD"/>
	<stop  offset="0.3391" style="stop-color:#1337E0"/>
	<stop  offset="0.4473" style="stop-color:#1052E4"/>
	<stop  offset="0.5545" style="stop-color:#0D75EA"/>
	<stop  offset="0.6609" style="stop-color:#08A0F1"/>
	<stop  offset="0.7647" style="stop-color:#03D1F9"/>
	<stop  offset="0.8293" style="stop-color:#00F4FF"/>
	<stop  offset="0.9118" style="stop-color:#00F4FD"/>
	<stop  offset="0.9415" style="stop-color:#00F5F6"/>
	<stop  offset="0.9626" style="stop-color:#00F7EB"/>
	<stop  offset="0.9798" style="stop-color:#00FADA"/>
	<stop  offset="0.9943" style="stop-color:#00FDC4"/>
	<stop  offset="1" style="stop-color:#00FFB9"/>
</linearGradient>
<path class="st0" d="M307.4,127.9c-0.4,0.4-81.7,68.7-106.9,89.5c-2.2,2.2-5.6,2.2-7.8,0L83.6,124C63.2,106.2,31,121.4,31,148.4
	v222.1c0,0.9,0,4.8,0,5.6c0.9,14.8,8.3,23.5,24.8,23.5c17.8,0,24.3-11.7,25.2-23.9c0-0.9,0-4.3,0-5.2V203.1c0-7.4,7-8.7,11.3-4.8
	L216.6,304l101.7,84.7l3.9,3.5c16.5,14.8,41.3,3.9,41.3-17.4V148.4C363.9,116.2,335.2,106.2,307.4,127.9z M313.9,312.2
	c0,2.6-4.3,6.1-10,0.9l-5.6-4.8l-62.1-53c-1.3-1.3-1.3-3,0-4.3l61.3-48.2l6.1-5.2c5.2-3.5,10-1.3,10,1.7
	C313.9,199.6,313.9,312.2,313.9,312.2z"/>
<linearGradient id="SVGID_2_" gradientUnits="userSpaceOnUse" x1="345.7" y1="114.3" x2="345.7" y2="114.3" gradientTransform="matrix(1 0 0 -1 0 264)">
	<stop  offset="0" style="stop-color:#28C7F8"/>
	<stop  offset="1" style="stop-color:#0167E7"/>
</linearGradient>
<path class="st1" d="M345.7,149.7"/>
<g>
	
		<linearGradient id="SVGID_3_" gradientUnits="userSpaceOnUse" x1="81.9112" y1="81.1685" x2="174.5172" y2="12.7903" gradientTransform="matrix(1 0 0 -1 0 264)">
		<stop  offset="0" style="stop-color:#1008A3"/>
		<stop  offset="0.1497" style="stop-color:#100DA6;stop-opacity:0.8503"/>
		<stop  offset="0.3279" style="stop-color:#101BAE;stop-opacity:0.6721"/>
		<stop  offset="0.5206" style="stop-color:#1033BB;stop-opacity:0.4794"/>
		<stop  offset="0.7236" style="stop-color:#1155CE;stop-opacity:0.2764"/>
		<stop  offset="0.9326" style="stop-color:#1180E5;stop-opacity:6.744385e-02"/>
		<stop  offset="1" style="stop-color:#118FEE;stop-opacity:0"/>
	</linearGradient>
	<path class="st2" d="M179.1,235.7c-70-49.1-95.7-70.6-97.9-34.5c1.5-5.4,4.5-4.9,6.4-5c1.5,0.3,2.5,0.4,3.7,1.4
		c3.6,2.7,8.2,6.9,13.9,11.7c13,11.3,34.3,29,60.9,51.6L179.1,235.7z"/>
</g>
<linearGradient id="SVGID_4_" gradientUnits="userSpaceOnUse" x1="215.5532" y1="28.7252" x2="234.0228" y2="49.2378" gradientTransform="matrix(1 0 0 -1 0 264)">
	<stop  offset="0" style="stop-color:#032EB6;stop-opacity:0.9"/>
	<stop  offset="0.1585" style="stop-color:#0435BA;stop-opacity:0.7573"/>
	<stop  offset="0.3866" style="stop-color:#0748C4;stop-opacity:0.5521"/>
	<stop  offset="0.6568" style="stop-color:#0D67D5;stop-opacity:0.3089"/>
	<stop  offset="0.957" style="stop-color:#1492EC;stop-opacity:3.869647e-02"/>
	<stop  offset="1" style="stop-color:#1599F0;stop-opacity:0"/>
</linearGradient>
<path class="st3" d="M234,253.3L193.2,218c1,0.8,1.9,1,2.8,1.1c0.9,0.1,1.9,0,2.9-0.6c1.7-1,3.8-2.9,6.3-5c5.5-4.6,12-10,17.3-14.4
	l24.5,43.2c0,0-4.5,3.5-8.1,6.4c-0.6,0.5-1,0.8-1.5,1.2c-0.2,0.2-0.3,0.2-0.6,0.4c-0.4,0.3-0.5,0.4-0.8,0.6c-0.1,0.1-0.5,0.6-0.8,1
	c-0.1,0.1,0.3-0.4-0.1,0.2v0.1c-0.5,1.3,0.5,2.4,0.6,2.8"/>
<path class="st4" d="M402.3,238.3V124.5H438l18.5,52.3c0.8,2.4,1.6,5.6,2.6,9.5s2,8,3,12.5s2,8.8,2.9,13.1c0.9,4.2,1.6,7.9,2.2,11
	h-4.5c0.6-3.1,1.3-6.7,2.2-10.9c0.9-4.2,1.8-8.5,2.9-13c1-4.5,2-8.7,3-12.6s1.9-7.1,2.6-9.5l18.2-52.3h35.9v113.8H504v-53.6
	c0-2.5,0-5.6,0.1-9.3s0.2-7.7,0.3-12c0.1-4.3,0.2-8.6,0.3-13s0.2-8.5,0.2-12.3h1.5c-1,4.2-2,8.6-3.2,13.1s-2.4,8.9-3.6,13.1
	c-1.2,4.2-2.3,8.1-3.4,11.7c-1.1,3.5-2,6.5-2.8,8.8l-18.9,53.6h-19.6l-19.2-53.6c-0.8-2.3-1.7-5.3-2.8-8.7
	c-1.1-3.5-2.2-7.3-3.4-11.6c-1.2-4.2-2.4-8.6-3.6-13.1s-2.4-8.9-3.4-13.3h1.8c0.1,3.7,0.1,7.7,0.2,12s0.2,8.7,0.3,13
	c0.1,4.4,0.2,8.4,0.3,12.1c0.1,3.7,0.1,6.9,0.1,9.5v53.6h-22.9V238.3z"/>
<path class="st4" d="M548,238.3V124.5h26l36,57.6c1.8,3,3.7,6.2,5.6,9.6s3.8,7.3,5.8,11.5s3.9,9,5.8,14.3h-2.4
	c-0.4-4.2-0.7-8.7-1-13.5s-0.5-9.4-0.7-13.8s-0.3-8.1-0.3-11.2v-54.6h23.8v113.8h-26.1L587.9,186c-2.4-3.9-4.6-7.7-6.6-11.4
	s-4.2-7.8-6.4-12.2c-2.2-4.5-4.9-9.8-7.9-16h3c0.3,5.5,0.6,10.8,0.9,15.8c0.3,5,0.5,9.6,0.7,13.7c0.2,4.1,0.3,7.4,0.3,10v52.3
	L548,238.3L548,238.3z"/>
<path class="st4" d="M402.3,390.4V276.6h23.3v94.5h49.1v19.3H402.3z"/>
<path class="st4" d="M528.4,392.1c-8.6,0-16-1.8-22.2-5.5c-6.3-3.7-11.1-8.8-14.5-15.4s-5.1-14.3-5.1-23c0-8.9,1.7-16.6,5.1-23.2
	s8.2-11.7,14.5-15.4c6.3-3.7,13.7-5.5,22.2-5.5c8.6,0,16,1.8,22.3,5.5c6.2,3.7,11.1,8.8,14.4,15.4c3.4,6.6,5.1,14.3,5.1,23.2
	c0,8.8-1.7,16.4-5.1,23c-3.4,6.6-8.2,11.7-14.4,15.4C544.4,390.2,537,392.1,528.4,392.1z M528.4,374.1c4.1,0,7.5-1.1,10.2-3.4
	c2.8-2.3,4.8-5.4,6.2-9.3s2.1-8.4,2.1-13.3c0-5-0.7-9.5-2.1-13.4c-1.4-3.9-3.4-7-6.2-9.2s-6.2-3.4-10.2-3.4c-4.1,0-7.5,1.1-10.2,3.4
	c-2.7,2.2-4.8,5.3-6.1,9.2c-1.4,3.9-2.1,8.4-2.1,13.4c0,4.9,0.7,9.4,2.1,13.3c1.4,3.9,3.4,7.1,6.1,9.3
	C520.9,372.9,524.3,374.1,528.4,374.1z"/>
<path class="st4" d="M624.1,424.2c-7.1,0-13.3-0.9-18.6-2.7c-5.3-1.8-9.6-4.3-12.9-7.4s-5.6-6.7-6.9-10.8l19.7-5.5
	c0.7,1.6,1.8,3.1,3.3,4.6s3.5,2.7,6,3.7s5.6,1.5,9.2,1.5c5.9,0,10.5-1.3,13.8-4s5-6.8,5-12.5v-15.7H641c-1,2.3-2.5,4.5-4.4,6.6
	s-4.5,3.9-7.6,5.2c-3.1,1.3-7,2-11.7,2c-6.4,0-12.2-1.5-17.5-4.5s-9.4-7.6-12.6-13.8c-3.1-6.2-4.7-14-4.7-23.4
	c0-9.6,1.6-17.7,4.8-24.1c3.2-6.5,7.4-11.3,12.7-14.6c5.3-3.3,11.1-4.9,17.4-4.9c4.8,0,8.8,0.8,12.1,2.4s5.9,3.6,7.9,6
	s3.5,4.7,4.5,7h1V305h22.5v84.7c0,7.7-1.8,14.1-5.3,19.2s-8.4,8.9-14.6,11.5C639.3,422.9,632.2,424.2,624.1,424.2z M624.5,371.8
	c3.9,0,7.2-1,10-2.9c2.7-1.9,4.8-4.7,6.2-8.4c1.4-3.6,2.1-8,2.1-13.1c0-5-0.7-9.4-2.1-13.2c-1.4-3.8-3.5-6.7-6.2-8.8
	c-2.7-2.1-6-3.1-10-3.1s-7.4,1.1-10.1,3.2c-2.7,2.2-4.8,5.1-6.2,8.9s-2.1,8.1-2.1,13c0,5,0.7,9.3,2.1,12.9c1.4,3.6,3.5,6.5,6.2,8.4
	C617.2,370.8,620.5,371.8,624.5,371.8z"/>
<linearGradient id="SVGID_5_" gradientUnits="userSpaceOnUse" x1="665.5159" y1="163.756" x2="728.0664" y2="249.8494" gradientTransform="matrix(1 0 0 -1 0 540)">
	<stop  offset="0" style="stop-color:#1615DA"/>
	<stop  offset="0.2343" style="stop-color:#1617DB"/>
	<stop  offset="0.3496" style="stop-color:#151FDC"/>
	<stop  offset="0.4389" style="stop-color:#132CDF"/>
	<stop  offset="0.5149" style="stop-color:#103FE4"/>
	<stop  offset="0.5823" style="stop-color:#0D57E9"/>
	<stop  offset="0.6438" style="stop-color:#0975F0"/>
	<stop  offset="0.6995" style="stop-color:#0497F9"/>
	<stop  offset="0.7366" style="stop-color:#00B3FF"/>
	<stop  offset="0.7662" style="stop-color:#07ACFC"/>
	<stop  offset="0.8087" style="stop-color:#1999F3"/>
	<stop  offset="0.8591" style="stop-color:#387AE4"/>
	<stop  offset="0.9154" style="stop-color:#634FCF"/>
	<stop  offset="0.976" style="stop-color:#9918B5"/>
	<stop  offset="1" style="stop-color:#B100AA"/>
</linearGradient>
<path class="st5" d="M696.5,293.8c-3.5,0-6.4-1.1-8.9-3.4c-2.4-2.3-3.7-5.1-3.7-8.3c0-3.3,1.2-6,3.7-8.3c2.4-2.3,5.4-3.4,8.9-3.4
	s6.4,1.1,8.9,3.4s3.7,5.1,3.7,8.3c0,3.3-1.2,6-3.7,8.3C702.9,292.7,699.9,293.8,696.5,293.8z M685,390.4V305h22.9v85.4H685z"/>
<linearGradient id="SVGID_6_" gradientUnits="userSpaceOnUse" x1="753.7227" y1="152.5297" x2="821.8494" y2="246.2981" gradientTransform="matrix(1 0 0 -1 0 540)">
	<stop  offset="0" style="stop-color:#1615DA"/>
	<stop  offset="0.2343" style="stop-color:#1617DB"/>
	<stop  offset="0.3496" style="stop-color:#151FDC"/>
	<stop  offset="0.4389" style="stop-color:#132CDF"/>
	<stop  offset="0.5149" style="stop-color:#103FE4"/>
	<stop  offset="0.5823" style="stop-color:#0D57E9"/>
	<stop  offset="0.6438" style="stop-color:#0975F0"/>
	<stop  offset="0.6995" style="stop-color:#0497F9"/>
	<stop  offset="0.7366" style="stop-color:#00B3FF"/>
	<stop  offset="0.7662" style="stop-color:#07ACFC"/>
	<stop  offset="0.8087" style="stop-color:#1999F3"/>
	<stop  offset="0.8591" style="stop-color:#387AE4"/>
	<stop  offset="0.9154" style="stop-color:#634FCF"/>
	<stop  offset="0.976" style="stop-color:#9918B5"/>
	<stop  offset="1" style="stop-color:#B100AA"/>
</linearGradient>
<path class="st6" d="M777.9,391.9c-10,0-19.1-2.3-27.1-6.9s-14.4-11.2-19-19.9c-4.7-8.7-7-19.2-7-31.6s2.3-22.9,7-31.7
	c4.7-8.7,11-15.4,19-20s17-6.9,27.1-6.9s19.1,2.3,27.1,6.9s14.3,11.2,19,20c4.7,8.7,7,19.3,7,31.7c0,12.3-2.3,22.8-7,31.6
	c-4.7,8.7-11,15.4-19,19.9C797,389.6,788,391.9,777.9,391.9z M777.9,371.2c5.9,0,11.1-1.4,15.5-4.3s7.8-7.1,10.3-12.8
	s3.7-12.5,3.7-20.6c0-8.2-1.2-15.1-3.7-20.7s-5.9-9.9-10.3-12.8c-4.4-2.9-9.6-4.3-15.5-4.3s-11,1.5-15.4,4.4s-7.9,7.2-10.3,12.8
	c-2.4,5.6-3.7,12.5-3.7,20.7c0,8.1,1.2,14.9,3.7,20.6c2.4,5.6,5.9,9.9,10.3,12.8S772,371.2,777.9,371.2z M770.7,351.3h19.9
	l10.5,13.5l9.4,11l19,24.1h-21.8l-13-16.2l-6.3-9L770.7,351.3z"/>
</svg>
