<?xml version="1.0" encoding="utf-8"?>
<!-- Generator: Adobe Illustrator 22.1.0, SVG Export Plug-In . SVG Version: 6.00 Build 0)  -->
<svg version="1.1" id="Layer_1" xmlns="http://www.w3.org/2000/svg" xmlns:xlink="http://www.w3.org/1999/xlink" x="0px" y="0px"
	 viewBox="0 0 860 540" style="enable-background:new 0 0 860 540;" xml:space="preserve">
<style type="text/css">
	.st0{fill:url(#SVGID_1_);}
	.st1{fill:url(#SVGID_2_);}
	.st2{fill:url(#SVGID_3_);}
	.st3{fill:url(#SVGID_4_);}
	.st4{fill:#FFFFFF;}
	.st5{fill:url(#SVGID_5_);}
	.st6{fill:url(#SVGID_6_);}
</style>
<linearGradient id="SVGID_1_" gradientUnits="userSpaceOnUse" x1="157.6087" y1="-158.593" x2="246.5478" y2="173.3309" gradientTransform="matrix(1 0 0 -1 0 266)">
	<stop  offset="0" style="stop-color:#1615DA"/>
	<stop  offset="0.1742" style="stop-color:#1618DA"/>
	<stop  offset="0.2991" style="stop-color:#1521DC"/>
	<stop  offset="0.4086" style="stop-color:#1331DF"/>
	<stop  offset="0.5093" style="stop-color:#1147E2"/>
	<stop  offset="0.604" style="stop-color:#0E64E7"/>
	<stop  offset="0.6941" style="stop-color:#0B87ED"/>
	<stop  offset="0.7807" style="stop-color:#07B1F4"/>
	<stop  offset="0.8624" style="stop-color:#02E0FC"/>
	<stop  offset="0.8927" style="stop-color:#00F4FF"/>
	<stop  offset="0.9445" style="stop-color:#00F4FD"/>
	<stop  offset="0.9632" style="stop-color:#00F3F6"/>
	<stop  offset="0.9765" style="stop-color:#00F1EB"/>
	<stop  offset="0.9873" style="stop-color:#00EEDA"/>
	<stop  offset="0.9964" style="stop-color:#00EBC4"/>
	<stop  offset="1" style="stop-color:#00E9B9"/>
</linearGradient>
<path class="st0" d="M309.7,130.4c-0.4,0.4-80.4,67.6-105.2,88.1c-2.1,2.1-5.6,2.1-7.7,0L89.5,126.6C69.4,109,37.7,124,37.7,150.5
	V369c0,0.9,0,4.7,0,5.6c0.9,14.5,8.1,23.1,24.4,23.1c17.5,0,23.9-11.5,24.8-23.5c0-0.9,0-4.3,0-5.1V204.4c0-7.3,6.8-8.6,11.1-4.7
	l122.3,103.9L320.4,387l3.8,3.4c16.2,14.5,40.6,3.8,40.6-17.1V150.5C365.3,118.9,337.1,109,309.7,130.4z M316.1,311.7
	c0,2.6-4.3,6-9.8,0.9l-5.6-4.7l-61.2-52.2c-1.3-1.3-1.3-3,0-4.3l60.3-47.5l6-5.1c5.1-3.4,9.8-1.3,9.8,1.7
	C316.1,201,316.1,311.7,316.1,311.7z"/>
<linearGradient id="SVGID_2_" gradientUnits="userSpaceOnUse" x1="347.3457" y1="114.1999" x2="347.3457" y2="114.1999" gradientTransform="matrix(1 0 0 -1 0 266)">
	<stop  offset="0" style="stop-color:#28C7F8"/>
	<stop  offset="1" style="stop-color:#0167E7"/>
</linearGradient>
<path class="st1" d="M347.3,151.8"/>
<g>
	
		<linearGradient id="SVGID_3_" gradientUnits="userSpaceOnUse" x1="87.9317" y1="81.5146" x2="179.0482" y2="14.2363" gradientTransform="matrix(1 0 0 -1 0 266)">
		<stop  offset="0" style="stop-color:#100885"/>
		<stop  offset="0.1972" style="stop-color:#100B88;stop-opacity:0.8028"/>
		<stop  offset="0.3676" style="stop-color:#101690;stop-opacity:0.6324"/>
		<stop  offset="0.5281" style="stop-color:#10289E;stop-opacity:0.4719"/>
		<stop  offset="0.6825" style="stop-color:#1041B1;stop-opacity:0.3175"/>
		<stop  offset="0.8326" style="stop-color:#1161CA;stop-opacity:0.1674"/>
		<stop  offset="0.9775" style="stop-color:#1188E9;stop-opacity:2.250975e-02"/>
		<stop  offset="1" style="stop-color:#118FEE;stop-opacity:0"/>
	</linearGradient>
	<path class="st2" d="M183.6,236.5c-68.8-48.3-94.1-69.3-96.2-33.8c1.3-5.1,4.3-4.7,6.4-5.1c1.7,0.4,2.6,0.4,3.8,1.3
		c3.4,2.6,8.1,6.8,13.7,11.5c12.8,11.1,33.8,28.7,59.9,50.9L183.6,236.5z"/>
</g>
<linearGradient id="SVGID_4_" gradientUnits="userSpaceOnUse" x1="219.3439" y1="29.7782" x2="237.5166" y2="49.9606" gradientTransform="matrix(1 0 0 -1 0 266)">
	<stop  offset="0" style="stop-color:#0322AF;stop-opacity:0.9"/>
	<stop  offset="0.1549" style="stop-color:#052DB5;stop-opacity:0.7606"/>
	<stop  offset="0.4254" style="stop-color:#094AC5;stop-opacity:0.5171"/>
	<stop  offset="0.7768" style="stop-color:#1078DE;stop-opacity:0.2009"/>
	<stop  offset="1" style="stop-color:#1599F0;stop-opacity:0"/>
</linearGradient>
<path class="st3" d="M237.4,254l-40.2-34.6c0.9,0.9,1.7,0.9,2.6,1.3c0.9,0,1.7,0,3-0.4c1.7-0.9,3.8-3,6-4.7
	c5.6-4.7,12-9.8,17.1-14.1l23.9,42.3c0,0-4.3,3.4-8.1,6.4c-0.4,0.4-0.9,0.9-1.3,1.3l-0.4,0.4c-0.4,0.4-0.4,0.4-0.9,0.4
	c0,0-0.4,0.4-0.9,0.9c0,0,0.4-0.4,0,0l0,0c-0.4,1.3,0.4,2.6,0.4,2.6"/>
<path class="st4" d="M402.9,239V127H438l18.4,51.3c0.9,2.6,1.7,5.6,2.6,9.4c0.9,3.8,2.1,8.1,3,12.4c0.9,4.3,2.1,8.6,3,12.8
	c0.9,4.3,1.7,7.7,2.1,10.7h-4.3c0.4-3,1.3-6.4,2.1-10.7c0.9-4.3,1.7-8.6,3-12.8c0.9-4.3,2.1-8.6,3-12.4c0.9-3.8,1.7-6.8,2.6-9.4
	l18-51.3h35.5v112h-23.1v-52.6c0-2.6,0-5.6,0-9s0-7.7,0.4-12c0.4-4.3,0.4-8.6,0.4-12.8c0-4.3,0-8.1,0.4-12h1.3
	c-0.9,4.3-2.1,8.6-3,12.8c-0.9,4.3-2.1,8.6-3.4,12.8c-1.3,4.3-2.1,8.1-3.4,11.5c-1.3,3.4-2.1,6.4-2.6,8.6L475.6,239h-19.2
	l-20.1-52.6c-0.9-2.1-1.7-5.1-2.6-8.6s-2.1-7.3-3.4-11.5c-1.3-4.3-2.6-8.6-3.4-12.8c-0.9-4.3-2.1-9-3.4-12.8h1.7c0,3.4,0,7.7,0.4,12
	c0.4,4.3,0,8.6,0.4,12.8s0.4,8.1,0.4,12c0,3.8,0,6.8,0,9.4v52.6h-23.5V239z"/>
<path class="st4" d="M546.6,239V127h25.7l35.5,56.9c1.7,3,3.4,6,5.6,9.4c2.1,3.4,3.8,7.3,5.6,11.5c1.7,4.3,3.8,9,5.6,14.1h-2.1
	c-0.4-4.3-0.9-8.6-0.9-13.3c0-4.7-0.4-9.4-0.9-13.7c-0.4-4.3-0.4-8.1-0.4-11.1V127h23.5v112H618L586,187.7
	c-2.6-3.8-4.7-7.7-6.4-11.1c-1.7-3.4-4.3-7.7-6.4-12c-2.1-4.3-4.7-9.8-7.7-15.8h3c0.4,5.6,0.4,10.7,0.9,15.4
	c0.4,4.7,0.4,9.4,0.9,13.7c0.4,4.3,0.4,7.3,0.4,9.8V239C570.6,239,546.6,239,546.6,239z"/>
<path class="st4" d="M402.9,388.7v-112H426v92.8h48.3v18.8h-71.4V388.7z"/>
<path class="st4" d="M526.9,390.4c-8.6,0-15.8-1.7-21.8-5.6c-6-3.8-11.1-8.6-14.1-15.4c-3-6.8-5.1-14.1-5.1-22.7s1.7-16.2,5.1-22.7
	s8.1-11.5,14.1-15.4s13.3-5.6,21.8-5.6c8.6,0,15.8,1.7,21.8,5.6s10.7,8.6,14.1,15.4c3.4,6.8,5.1,14.1,5.1,22.7
	c0,8.6-1.7,16.2-5.1,22.7c-3.4,6.4-8.1,11.5-14.1,15.4C542.8,388.7,535.5,390.4,526.9,390.4z M526.9,372.9c3.8,0,7.3-1.3,10.3-3.4
	c3-2.1,4.7-5.1,6-9c1.3-3.8,2.1-8.1,2.1-13.3c0-5.1-0.9-9.4-2.1-13.3c-1.3-3.8-3.4-6.8-6-9s-6-3.4-10.3-3.4c-4.3,0-7.3,1.3-9.8,3.4
	c-2.6,2.1-4.7,5.1-6,9c-1.3,3.8-2.1,8.1-2.1,13.3c0,4.7,0.9,9.4,2.1,13.3s3.4,6.8,6,9C519.7,371.6,523.1,372.9,526.9,372.9z"/>
<path class="st4" d="M621.5,422.1c-6.8,0-13.3-0.9-18.4-2.6c-5.1-1.7-9.4-4.3-12.8-7.3c-3.4-3-5.6-6.8-6.8-10.7l19.2-5.6
	c0.9,1.7,1.7,3,3.4,4.7c1.7,1.7,3.4,2.6,6,3.8c2.6,1.3,5.6,1.3,9,1.3c5.6,0,10.3-1.3,13.7-3.8c3.4-2.6,5.1-6.8,5.1-12.4v-15.4h-1.7
	c-0.9,2.1-2.6,4.3-4.3,6.4c-1.7,2.1-4.3,3.8-7.3,5.1c-3,1.3-6.8,2.1-11.5,2.1c-6.4,0-12-1.3-17.1-4.3c-5.1-3-9.4-7.3-12.4-13.7
	s-4.7-13.7-4.7-23.1s1.7-17.5,4.7-23.9s7.3-11.1,12.4-14.5c5.1-3.4,10.7-4.7,17.1-4.7c4.7,0,8.6,0.9,12,2.6c3.4,1.7,6,3.4,7.7,6
	s3.4,4.7,4.3,6.8h0.9v-14.1h22.2v83.4c0,7.7-1.7,13.7-5.1,18.8c-3.4,5.1-8.1,9-14.5,11.1C636,420.3,629.1,422.1,621.5,422.1z
	 M621.9,370.3c3.8,0,7.3-0.9,9.8-3s4.7-4.7,6-8.1s2.1-7.7,2.1-12.8s-0.9-9.4-2.1-12.8c-1.3-3.4-3.4-6.4-6-8.6s-6-3-9.8-3
	c-3.8,0-7.3,0.9-9.8,3s-4.7,5.1-6,8.6c-1.3,3.4-2.1,8.1-2.1,12.8c0,4.7,0.9,9,2.1,12.8c1.3,3.8,3.4,6.4,6,8.1
	C614.6,369,617.6,370.3,621.9,370.3z"/>
<linearGradient id="SVGID_5_" gradientUnits="userSpaceOnUse" x1="662.274" y1="166.9296" x2="723.8526" y2="251.6848" gradientTransform="matrix(1 0 0 -1 0 542)">
	<stop  offset="0" style="stop-color:#1615DA"/>
	<stop  offset="0.1194" style="stop-color:#1519DB"/>
	<stop  offset="0.2367" style="stop-color:#1425DE"/>
	<stop  offset="0.3532" style="stop-color:#1138E2"/>
	<stop  offset="0.4692" style="stop-color:#0D54E9"/>
	<stop  offset="0.5849" style="stop-color:#0878F1"/>
	<stop  offset="0.6988" style="stop-color:#02A3FB"/>
	<stop  offset="0.7366" style="stop-color:#00B3FF"/>
	<stop  offset="0.7721" style="stop-color:#05AEFD"/>
	<stop  offset="0.8117" style="stop-color:#12A1F6"/>
	<stop  offset="0.8533" style="stop-color:#288BEC"/>
	<stop  offset="0.8962" style="stop-color:#476BDD"/>
	<stop  offset="0.9402" style="stop-color:#6E43CA"/>
	<stop  offset="0.9845" style="stop-color:#9E13B3"/>
	<stop  offset="1" style="stop-color:#B100AA"/>
</linearGradient>
<path class="st5" d="M692.4,293.8c-3.4,0-6.4-1.3-8.6-3.4c-2.1-2.1-3.4-5.1-3.4-8.1c0-3,1.3-6,3.4-8.1c2.1-2.1,5.1-3.4,8.6-3.4
	c3.4,0,6.4,1.3,8.6,3.4c2.1,2.1,3.8,5.1,3.8,8.1c0,3-1.3,6-3.8,8.1C698.4,292.5,695.9,293.8,692.4,293.8z M681.3,388.7v-83.8H704
	v84.2h-22.7V388.7z"/>
<linearGradient id="SVGID_6_" gradientUnits="userSpaceOnUse" x1="748.8451" y1="155.9944" x2="815.8518" y2="248.2211" gradientTransform="matrix(1 0 0 -1 0 542)">
	<stop  offset="0" style="stop-color:#1615DA"/>
	<stop  offset="0.1194" style="stop-color:#1519DB"/>
	<stop  offset="0.2367" style="stop-color:#1425DE"/>
	<stop  offset="0.3532" style="stop-color:#1138E2"/>
	<stop  offset="0.4692" style="stop-color:#0D54E9"/>
	<stop  offset="0.5849" style="stop-color:#0878F1"/>
	<stop  offset="0.6988" style="stop-color:#02A3FB"/>
	<stop  offset="0.7366" style="stop-color:#00B3FF"/>
	<stop  offset="0.7721" style="stop-color:#05AEFD"/>
	<stop  offset="0.8117" style="stop-color:#12A1F6"/>
	<stop  offset="0.8533" style="stop-color:#288BEC"/>
	<stop  offset="0.8962" style="stop-color:#476BDD"/>
	<stop  offset="0.9402" style="stop-color:#6E43CA"/>
	<stop  offset="0.9845" style="stop-color:#9E13B3"/>
	<stop  offset="1" style="stop-color:#B100AA"/>
</linearGradient>
<path class="st6" d="M772.8,390.4c-9.8,0-18.8-2.1-26.5-6.8c-7.7-4.7-14.1-11.1-18.8-19.7s-6.8-18.8-6.8-31.2
	c0-12,2.1-22.7,6.8-31.2c4.7-8.6,10.7-15,18.8-19.7c8.1-4.7,16.7-6.8,26.5-6.8s18.8,2.1,26.5,6.8c7.7,4.7,14.1,11.1,18.8,19.7
	c4.7,8.6,6.8,18.8,6.8,31.2c0,12-2.1,22.7-6.8,31.2s-10.7,15-18.8,19.7C791.2,388.3,782.7,390.4,772.8,390.4z M772.8,369.9
	c6,0,10.7-1.3,15.4-4.3c4.7-3,7.7-6.8,10.3-12.4c2.6-5.6,3.4-12.4,3.4-20.1c0-8.1-1.3-15-3.4-20.5s-6-9.8-10.3-12.4
	c-4.3-2.6-9.4-4.3-15.4-4.3c-5.6,0-10.7,1.3-15.4,4.3c-4.7,3-7.7,6.8-10.3,12.4s-3.4,12.4-3.4,20.5c0,8.1,1.3,14.5,3.4,20.1
	c2.6,5.6,6,9.8,10.3,12.4C761.7,368.2,766.8,369.9,772.8,369.9z M765.6,350.2h19.7l10.3,13.3l9.4,10.7l18.8,23.5h-21.4l-12.8-15.8
	l-6.4-9L765.6,350.2z"/>
</svg>
