<?xml version="1.0" encoding="utf-8"?>
<!-- Generator: Adobe Illustrator 22.1.0, SVG Export Plug-In . SVG Version: 6.00 Build 0)  -->
<svg version="1.1" id="Dont_x5F_overwork_x5F_yourself"
	 xmlns="http://www.w3.org/2000/svg" xmlns:xlink="http://www.w3.org/1999/xlink" x="0px" y="0px" viewBox="0 0 512 512"
	 style="enable-background:new 0 0 512 512;" xml:space="preserve">
<style type="text/css">
	.st0{fill:#A6A6A6;}
	.st1{fill:#777777;}
</style>
<rect x="448.9" y="443.2" class="st0" width="9.5" height="9.5"/>
<rect x="416.7" y="443.2" class="st0" width="9.5" height="9.5"/>
<path class="st1" d="M474.8,462.2V278.6H410h-5h-37.3v183.6h-52.3v-6.5h13.7V278.6h-82.6c7.6-10,12.8-21.5,15.3-33.8
	c13.9-1.7,24.7-13.5,24.7-27.9c0-7.5-3-14.6-8.3-19.9v-65.3c0-40.3-32.8-73.1-73.1-73.1v0.4c-4.8-6-12.1-9.9-20.3-9.9h-0.1
	c-0.1,0-0.2,0-0.3,0c-27,0-52.6,10.7-72.1,30.2c-20,20-31,46.3-31,74.3v43.7c-5.1,5.2-7.9,12.2-7.9,19.5c0,14.3,10.8,26.2,24.7,27.9
	c2.5,12.3,7.7,23.8,15.3,33.8H32.1v177.1h11.3v6.5H16v10h27.4h272.1h52.3h32.6h9.7h22.6h10h32.3H496v-10L474.8,462.2L474.8,462.2z
	 M276.3,214c0.2,1,0.3,1.9,0.3,2.9c0,8.3-5.7,15.3-13.3,17.4c0.1-2,0.2-4.1,0.2-6.1v-2.4C269.1,223.7,273.8,219.4,276.3,214z
	 M210,68.9c32.5,2.5,58.2,29.7,58.2,62.9v73c0,4-1.9,7.5-4.8,9.8v-6.7c0-8.9-2.6-17.4-7.6-24.8c-1.9-2.8-3.4-5.9-4.4-9.1
	c-1-3.2-1.5-6.6-1.5-10v-11.1c0-16.5-13.4-30-29.9-30l-12.7-0.1c2.4-6.7,3.6-13.6,3.6-20.8V75.3C210.8,73.1,210.6,70.9,210,68.9z
	 M83.3,216.9c0-1.2,0.1-2.5,0.4-3.7c2.6,5.3,7.1,9.6,12.7,12v3c0,2.1,0.1,4.1,0.2,6.1C89,232.2,83.3,225.2,83.3,216.9z M96.4,206.4
	v7.2c-3.2-2.7-5.2-6.7-5.2-11.2v-48.7c0-25.3,10-49.2,28.1-67.2c17.6-17.6,40.7-27.3,65.1-27.3c0.1,0,0.2,0,0.3,0h0.1
	c8.8,0,16,7.2,16,16.1V102c0,8.3-1.9,16.2-5.6,23.5c-8.9,17.5-26.6,28.4-46.3,28.4c-14,0-27.3,5.5-37.2,15.4
	C101.9,179.2,96.4,192.4,96.4,206.4z M106.4,228.2v-21.8c0-11.4,4.4-22.1,12.5-30.1c8-8,18.7-12.5,30.1-12.5
	c22.3,0,42.6-11.8,53.7-31.1l17.3,0.1c11,0,20,9,20,20v11.1c0,4.4,0.7,8.8,2,12.9c1.3,4.2,3.2,8.2,5.7,11.8
	c3.9,5.7,5.9,12.3,5.9,19.1v20.4c0,18.9-7.1,36.7-20,50.4H126.4C113.5,264.9,106.4,247.1,106.4,228.2z M42.1,445.7V288.6h166.8
	L53.4,445.7h-10H42.1z M305.4,462.2H53.4v-6.5h252.1V462.2z M123.7,445.7l71.6-72.3l-7.8-7.7l-79.2,80H68.8l155.6-157.1h39.4
	l-53.4,53.9l7.8,7.7l61-61.6h39.9v157.1h-3.7L123.7,445.7L123.7,445.7z M400,462.2h-22.3v-28.8H400V462.2z M400,423.5h-22.3V288.6
	H400V423.5z M432.6,452.6v9.6h-22.3v-28.8h22.3V452.6z M464.8,462.2h-22.3v-28.8h22.3V462.2z M464.8,423.5h-22.3V318.3h-10v3.9l0,0
	v101.3h-22.3V288.6h22.3v17.5h10v-17.5h22.3V423.5z"/>
<rect x="384.1" y="443.2" class="st0" width="9.5" height="9.5"/>
<polygon class="st0" points="136.3,234.9 144.5,226.8 152.6,234.9 159.7,227.9 151.5,219.8 159.7,211.6 152.6,204.6 144.5,212.7 
	136.3,204.6 129.3,211.6 137.4,219.8 129.3,227.9 "/>
<polygon class="st0" points="203.2,234.9 211.3,226.8 219.4,234.9 226.5,227.9 218.4,219.8 226.5,211.6 219.4,204.6 211.3,212.7 
	203.2,204.6 196.1,211.6 204.3,219.8 196.1,227.9 "/>
<rect x="159.2" y="260.7" class="st0" width="42" height="10"/>
<path class="st0" d="M338.9,197c11,5.1,22.7,7.6,34.4,7.6c9.6,0,19.2-1.7,28.5-5.1c20.6-7.6,37-22.8,46.2-42.7s10.1-42.3,2.5-62.9
	c-7.6-20.6-22.8-37-42.7-46.2c-10-4.6-20.7-7.2-31.6-7.5l-11.9-0.4l8,8.8c19.7,21.5,24.5,52.5,12.3,79c-12.2,26.5-38.9,42.9-68.1,42
	l-11.9-0.4l8,8.8C320,185.9,328.9,192.4,338.9,197z M393.7,131.7c12.2-26.4,9.5-56.7-6.4-80.3c5.6,1.1,11,2.9,16.3,5.3
	c17.5,8.1,30.8,22.5,37.5,40.6c6.7,18.1,5.9,37.7-2.2,55.2c-8.1,17.5-22.5,30.8-40.6,37.5c-18.1,6.7-37.7,5.9-55.2-2.2
	c-5.3-2.4-10.1-5.4-14.6-8.9C356.7,175.7,381.5,158.1,393.7,131.7z"/>
</svg>
