<?xml version="1.0" encoding="utf-8"?>
<!-- Generator: Adobe Illustrator 22.1.0, SVG Export Plug-In . SVG Version: 6.00 Build 0)  -->
<svg version="1.1" id="Layer_1" xmlns="http://www.w3.org/2000/svg" xmlns:xlink="http://www.w3.org/1999/xlink" x="0px" y="0px"
	 viewBox="0 0 512 512" style="enable-background:new 0 0 512 512;" xml:space="preserve">
<style type="text/css">
	.st0{fill:#7A7A7A;}
	.st1{fill:#A6A6A6;}
</style>
<g id="Layer_1_1_">
	<path class="st0" d="M446,321.2c-7.2-3.6-12-10.8-12-19.6V100c0-10-8-18-18-18c-1.2,0-2.4,0-3.6,0.4V220c0,4-3.2,7.2-7.2,7.2
		S398,224,398,220V70.8c0-10-8-18-18-18s-18,8-18,18v12.8c1.6,1.2,3.6,2.4,4.8,4c6,6,9.6,14.4,9.6,23.2v108.8c0,4-3.2,7.2-7.2,7.2
		s-7.2-3.2-7.2-7.2V110.8c0-10-8-18-18-18s-18,8-18,18v156c0,4-3.2,7.2-7.2,7.2s-7.2-3.2-7.2-7.2V216c0-10-8-18-18-18s-18,8-18,18
		v98c0,25.2,14.4,47.2,35.2,58l182.8,87.2v-116L446,321.2z"/>
</g>
<g id="H1">
	<circle class="st1" cx="141.6" cy="122.8" r="32"/>
	<path class="st1" d="M248.4,258.8l-54-25.2L178.8,192l0,0c-6-14.4-19.2-25.6-35.6-28.4l-12.8-2c-13.6-2.4-26.8,1.2-36.8,8.8l-46,32
		l0,0c-3.2,2-5.2,5.2-6,9.2v0.4l0,0L30,276c-1.2,7.6,3.6,14.8,11.2,16s14.8-3.6,16-11.2L68,222.4c0,0,26.8-18.4,27.2-18.4l-18,102
		l-12.8,74.4l-43.2,61.2c-6,8.8-4,21.2,4.8,27.6s21.2,4,27.6-4.8l45.6-64.8c2-2.4,2.8-5.2,3.2-8l0,0l10.4-58.4l34.8,49.6L160,456
		c2,10.8,12,18,22.8,16s18-12,16-22.8l-14-78.4c-0.8-3.2-2-5.6-3.6-8l0,0l-40-58l15.6-90.4l0,0l12.4,33.6l0,0c1.2,3.6,3.6,6.4,7.6,8
		h0.4l0,0l59.2,27.6c7.2,3.2,15.2,0.4,18.4-6.8C258.4,270.4,255.2,262,248.4,258.8z"/>
</g>
</svg>
