<?xml version="1.0" encoding="utf-8"?>
<!-- Generator: Adobe Illustrator 22.1.0, SVG Export Plug-In . SVG Version: 6.00 Build 0)  -->
<svg version="1.1" id="Layer_1" xmlns="http://www.w3.org/2000/svg" xmlns:xlink="http://www.w3.org/1999/xlink" x="0px" y="0px"
	 viewBox="0 0 512 512" style="enable-background:new 0 0 512 512;" xml:space="preserve">
<style type="text/css">
	.st0{fill:#7A7A7A;}
</style>
<path class="st0" d="M287.5,184.6l70.9-68.9l-70.9-17.7V184.6z M255.9,162.7l-14.4-66.2l-41.8,35.2L255.9,162.7z M200.9,238.6
	c-6.3-3.6-13-6.4-19.9-8.5c6.9-4.6,43.5-26,43.5-26l19.7,32c0,0-25,14.7-26.1,15.3C213,246.6,207.2,242.2,200.9,238.6z M449.7,260.8
	l-73-19.6c-10.9-2.9-22.2-3.5-33-1.7c-10.3-8.5-22.4-15.5-34.3-22.4l-22-12.8l-19.7,31.8l22.9,13.4c5.1,3,9.8,5.7,14,8.3
	c-11.7,10.2-20.2,23.6-24.3,38.9c-2.7,9.9-3.3,20-2.1,29.6h15.1c8.7,0,16.5-3.9,21.9-10c0.1-3.3,0.5-6.6,1.4-9.9
	c2.5-9.1,7.9-16.9,15.4-22.5c1.6,3.9,2.5,8.2,2.5,13.2c0,13-6.5,25.7-17.1,33.3c0,0,0-0.1,0-0.1c-6.8,4.8-15,7.7-24,7.7l-61.9,0.2
	c3.7-13.2,4-27.5,0.2-41.6c-5.4-20-18.8-37.4-36.7-47.7c-14.8-8.5-32.6-12.1-49.7-9.8c-9.2,1.2-83,21.6-83,21.6
	c-20.3,5.5-37.2,18.5-47.7,36.7C4.1,315.8,1.3,337,6.7,357.3c5.5,20.3,18.5,37.2,36.7,47.7c12.1,7,25.6,10.6,39.2,10.6
	c6.8,0,13.7-0.9,20.5-2.7l73-19.6c12.6-3.4,23.6-9.7,32.6-17.9c3.2,0.4,6.5,0.6,9.9,0.6c0,0,74.6,0,74.7,0c20.1-0.5,39.9-8,54.5-22
	c5.9-5.7,11-12.4,14.9-19.7c0-0.1,0.1-0.1,0.1-0.2c7.7-14.5,10.6-31.3,8.5-47.6c-0.4-2.9-0.9-5.6-1.6-8.2l70.2,18.9
	c10.6,2.9,19.5,9.7,24.9,19.2c5.5,9.5,6.9,20.6,4.1,31.2c-5.9,21.9-28.5,34.9-50.4,29l-60.3-16.2c-11.3,11.7-25.8,20.3-42,24.6
	c6,3.5,12.5,6.4,19.5,8.3l73,19.6c6.8,1.8,13.7,2.7,20.5,2.7c13.6,0,27.1-3.6,39.2-10.6c18.2-10.5,31.3-27.4,36.7-47.7
	C516.6,315.4,491.6,272.1,449.7,260.8z M194.6,330.5c-10.1-7.3-16.8-19.1-17.1-32.5c-2.1-2.4-4.5-4.5-7.3-6.1
	c-4.4-2.6-9.5-4.1-14.5-3.9c-6.7,0.3-15.5,3.1-15.5,3.1c-0.1,2-0.2,4-0.2,6c0,23.7,10.6,45,27.2,59.5c-0.3,0.1-0.5,0.2-0.8,0.3
	l-73,19.6c-10.6,2.9-21.7,1.4-31.2-4.1c-9.5-5.5-16.4-14.3-19.2-24.9c-5.9-21.9,7.1-44.5,29-50.4c11.4-3.1,51.2-13.6,59.8-16.1
	c8.8-2.6,17.8-5.2,27.1-4.8c6,0.3,12.1,2.3,17.3,5.3c9.4,5.4,16.4,14.5,19.2,24.9C197.6,314.7,197.2,323,194.6,330.5z"/>
</svg>
