<?xml version="1.0" encoding="utf-8"?>
<!-- Generator: Adobe Illustrator 22.1.0, SVG Export Plug-In . SVG Version: 6.00 Build 0)  -->
<svg version="1.1" id="_x3C_Layer_x3E_" xmlns="http://www.w3.org/2000/svg" xmlns:xlink="http://www.w3.org/1999/xlink" x="0px"
	 y="0px" viewBox="0 0 512 512" style="enable-background:new 0 0 512 512;" xml:space="preserve">
<style type="text/css">
	.st0{fill:none;stroke:#455A64;stroke-linecap:round;stroke-linejoin:round;stroke-miterlimit:10;}
	.st1{fill:none;stroke:#455A64;stroke-miterlimit:10;}
	.st2{fill:none;stroke:#716C6C;stroke-width:10;stroke-linecap:round;stroke-linejoin:round;stroke-miterlimit:10;}
	.st3{fill:none;stroke:#8C8C8C;stroke-width:10;stroke-linecap:round;stroke-linejoin:round;stroke-miterlimit:10;}
</style>
<g id="XMLID_3788_">
	<g id="TDD_testing_x2C__code_coding_laptop_6_">
		<g id="XMLID_3861_">
			<path id="XMLID_3863_" class="st0" d="M222.2,416.5l-22.4-19.9c-11.2-10.1-19.8-22.6-25.3-36.6l-32.2-88.8
				c-2.7-7.5,0.8-15.8,8-19.2c3.8-1.8,7.7-2.6,11.7-2.6c10.1,0,19.8,5.6,24.8,15.2l29.4,59.2c9.9-7.4,15.7-19,15.7-31.2V104
				c0-13.3,10.7-24,24-24s24,10.7,24,24v128c0-13.3,10.7-24,24-24s24,10.7,24,24v8c0-13.3,10.7-24,24-24s24,10.7,24,24v16
				c0-13.3,10.7-24,24-24s24,10.7,24,24v129.4c0,10.8-3.2,21.3-9.2,30.3"/>
			<polyline id="XMLID_3862_" class="st0" points="216,488 216,440 424,440 424,488 			"/>
		</g>
		<g id="XMLID_3789_">
			<path id="XMLID_3860_" class="st0" d="M167.6,88.7c0.2,2.4,0.4,4.9,0.4,7.3c0,39.7-32.1,71.8-71.8,71.8S24.4,135.7,24.4,96
				s32.2-71.8,71.8-71.8c12.7,0,24.6,3.3,35,9.1"/>
			<polyline id="XMLID_3794_" class="st0" points="165,45.5 96.2,114.3 63,81.1 			"/>
			<circle id="XMLID_3793_" class="st1" cx="416" cy="96" r="72"/>
			<g id="XMLID_3790_">
				<line id="XMLID_3792_" class="st0" x1="440" y1="120" x2="392" y2="72"/>
				<line id="XMLID_3791_" class="st0" x1="440" y1="72" x2="392" y2="120"/>
			</g>
		</g>
	</g>
</g>
<g id="XMLID_3573_">
	<path id="XMLID_3575_" class="st2" d="M222.2,416.5l-22.4-19.9c-11.2-10.1-19.8-22.6-25.3-36.6l-32.2-88.8
		c-2.7-7.5,0.8-15.8,8-19.2c3.8-1.8,7.7-2.6,11.7-2.6c10.1,0,19.8,5.6,24.8,15.2l29.4,59.2c9.9-7.4,15.7-19,15.7-31.2V104
		c0-13.3,10.7-24,24-24s24,10.7,24,24v128c0-13.3,10.7-24,24-24s24,10.7,24,24v8c0-13.3,10.7-24,24-24s24,10.7,24,24v16
		c0-13.3,10.7-24,24-24s24,10.7,24,24v129.4c0,10.8-3.2,21.3-9.2,30.3"/>
	<polyline id="XMLID_3574_" class="st2" points="216,488 216,440 424,440 424,488 	"/>
</g>
<path id="XMLID_3572_" class="st3" d="M167.6,88.7c0.2,2.4,0.4,4.9,0.4,7.3c0,39.7-32.1,71.8-71.8,71.8S24.4,135.7,24.4,96
	s32.2-71.8,71.8-71.8c12.7,0,24.6,3.3,35,9.1"/>
<polyline id="XMLID_3571_" class="st3" points="165,45.5 96.2,114.3 63,81.1 "/>
<circle id="XMLID_3570_" class="st3" cx="416" cy="96" r="72"/>
<g id="XMLID_3567_">
	<line id="XMLID_3569_" class="st3" x1="440" y1="120" x2="392" y2="72"/>
	<line id="XMLID_3568_" class="st3" x1="440" y1="72" x2="392" y2="120"/>
</g>
</svg>
