<?xml version="1.0" encoding="utf-8"?>
<!-- Generator: Adobe Illustrator 22.1.0, SVG Export Plug-In . SVG Version: 6.00 Build 0)  -->
<svg version="1.1" id="Layer_1" xmlns="http://www.w3.org/2000/svg" xmlns:xlink="http://www.w3.org/1999/xlink" x="0px" y="0px"
	 viewBox="0 0 750 550" style="enable-background:new 0 0 750 550;" xml:space="preserve">
<style type="text/css">
	.st0{fill:#EBEBEB;}
	.st1{fill:#CBCBCB;}
	.st2{font-family:'MyriadPro-Regular';}
	.st3{font-size:34px;}
</style>
<path class="st0" d="M697.5,172H53c-13.8,0-25-11.2-25-25V64.5c0-13.8,11.2-25,25-25h644.5c13.8,0,25,11.2,25,25V147
	C722.5,160.8,711.3,172,697.5,172z"/>
<path class="st0" d="M697.5,335H53c-13.8,0-25-11.2-25-25v-82.5c0-13.8,11.2-25,25-25h644.5c13.8,0,25,11.2,25,25V310
	C722.5,323.8,711.3,335,697.5,335z"/>
<path class="st0" d="M697.3,497.5H52.8c-13.8,0-25-11.2-25-25V390c0-13.8,11.2-25,25-25h644.5c13.8,0,25,11.2,25,25v82.5
	C722.3,486.3,711.1,497.5,697.3,497.5z"/>
<path class="st1" d="M651.3,408.9l-19.1-9.3l-18.2,9.8c-2,0.7-5.2-2-5.2-3.6v-47.6c0-1.6,1.3-2.9,2.9-2.9h40.8
	c1.6,0,2.9,1.3,2.9,2.9v47.6C655.5,407.4,652.8,409.8,651.3,408.9z"/>
<text transform="matrix(1 0 0 1 87.625 93.1914)"><tspan x="0" y="0" class="st2 st3">Analyze competitor aftersales</tspan><tspan x="0" y="45" class="st2 st3">strategy</tspan></text>
<text transform="matrix(1 0 0 1 87.625 256.8164)"><tspan x="0" y="0" class="st2 st3">Optimize my CAD process for</tspan><tspan x="0" y="45" class="st2 st3">faster design approvals</tspan></text>
<text transform="matrix(1 0 0 1 87.5 419.1914)"><tspan x="0" y="0" class="st2 st3">Automate regulatory compliance</tspan><tspan x="0" y="45" class="st2 st3">reporting for EU market</tspan></text>
<path class="st1" d="M651.3,245.9l-19.1-9.3l-18.2,9.8c-2,0.7-5.2-2-5.2-3.6v-47.6c0-1.6,1.3-2.9,2.9-2.9h40.8
	c1.6,0,2.9,1.3,2.9,2.9v47.6C655.5,244.4,652.8,246.8,651.3,245.9z"/>
<path class="st1" d="M651.3,82.9l-19.1-9.3L614,83.3c-2,0.7-5.2-2-5.2-3.6V32.1c0-1.6,1.3-2.9,2.9-2.9h40.8c1.6,0,2.9,1.3,2.9,2.9
	v47.6C655.5,81.4,652.8,83.8,651.3,82.9z"/>
</svg>
