<?xml version="1.0" encoding="utf-8"?>
<!-- Generator: Adobe Illustrator 22.1.0, SVG Export Plug-In . SVG Version: 6.00 Build 0)  -->
<svg version="1.1" id="Layer_1" xmlns="http://www.w3.org/2000/svg" xmlns:xlink="http://www.w3.org/1999/xlink" x="0px" y="0px"
	 viewBox="0 0 512 512" style="enable-background:new 0 0 512 512;" xml:space="preserve">
<style type="text/css">
	.st0{fill:#606060;}
	.st1{fill:#CBCBCB;}
	.st2{fill:#8E8D8D;}
	.st3{fill:#CACACA;}
</style>
<path class="st0" d="M160,16h96l0,0v82.1c0,7.7-6.2,13.9-13.9,13.9h-68.2c-7.7,0-13.9-6.2-13.9-13.9V16L160,16z"/>
<path class="st1" d="M176,416H48c-26.5,0-48-21.5-48-48V48C0,21.5,21.5,0,48,0h320c26.5,0,48,21.5,48,48v128c0,8.8-7.2,16-16,16
	s-16-7.2-16-16V48c0-8.8-7.2-16-16-16H48c-8.8,0-16,7.2-16,16v320c0,8.8,7.2,16,16,16h128c8.8,0,16,7.2,16,16S184.8,416,176,416z"/>
<path class="st2" d="M112,352H80c-8.8,0-16-7.2-16-16s7.2-16,16-16h32c8.8,0,16,7.2,16,16S120.8,352,112,352z"/>
<path class="st1" d="M368,512c-79.5,0-144-64.5-144-144s64.5-144,144-144s144,64.5,144,144S447.5,512,368,512z M368,256
	c-61.9,0-112,50.1-112,112s50.1,112,112,112s112-50.1,112-112S429.9,256,368,256z"/>
<circle class="st3" cx="368" cy="368" r="80"/>
<path class="st0" d="M390.6,368l20.8-20.6c6.3-6.3,6.3-16.4,0-22.7s-16.4-6.3-22.7,0L368,345.4l-20.6-20.8c-6.3-6.3-16.4-6.3-22.7,0
	s-6.3,16.4,0,22.7l20.8,20.6l-20.8,20.6c-6.3,6.2-6.3,16.4-0.1,22.6c0,0,0.1,0.1,0.1,0.1c6.2,6.3,16.4,6.3,22.6,0.1
	c0,0,0.1-0.1,0.1-0.1l20.6-20.8l20.6,20.8c6.2,6.3,16.4,6.3,22.6,0.1c0,0,0.1-0.1,0.1-0.1c6.3-6.2,6.3-16.4,0.1-22.6
	c0,0-0.1-0.1-0.1-0.1L390.6,368z"/>
</svg>
